<svg width="25" height="26" viewBox="0 0 29 28" fill="none" xmlns="http://www.w3.org/2000/svg">
<path d="M11.7115 4.5V5H17.2885V4.5C17.2885 3.83696 16.9947 3.20107 16.4717 2.73223C15.9488 2.26339 15.2395 2 14.5 2C13.7605 2 13.0512 2.26339 12.5283 2.73223C12.0053 3.20107 11.7115 3.83696 11.7115 4.5ZM9.48077 5V4.5C9.48077 3.30653 10.0096 2.16193 10.9509 1.31802C11.8922 0.474106 13.1688 0 14.5 0C15.8312 0 17.1078 0.474106 18.0491 1.31802C18.9904 2.16193 19.5192 3.30653 19.5192 4.5V5H27.8846C28.1804 5 28.4641 5.10536 28.6733 5.29289C28.8825 5.48043 29 5.73478 29 6C29 6.26522 28.8825 6.51957 28.6733 6.70711C28.4641 6.89464 28.1804 7 27.8846 7H26.2026L24.0923 23.568C23.9367 24.7882 23.2856 25.9143 22.2632 26.7317C21.2409 27.5491 19.9187 28.0006 18.5488 28H10.4512C9.08131 28.0006 7.75914 27.5491 6.73676 26.7317C5.71438 25.9143 5.06331 24.7882 4.90769 23.568L2.79738 7H1.11538C0.819566 7 0.535864 6.89464 0.326689 6.70711C0.117513 6.51957 0 6.26522 0 6C0 5.73478 0.117513 5.48043 0.326689 5.29289C0.535864 5.10536 0.819566 5 1.11538 5H9.48077ZM12.2692 11.5C12.2692 11.2348 12.1517 10.9804 11.9425 10.7929C11.7334 10.6054 11.4497 10.5 11.1538 10.5C10.858 10.5 10.5743 10.6054 10.3652 10.7929C10.156 10.9804 10.0385 11.2348 10.0385 11.5V21.5C10.0385 21.7652 10.156 22.0196 10.3652 22.2071C10.5743 22.3946 10.858 22.5 11.1538 22.5C11.4497 22.5 11.7334 22.3946 11.9425 22.2071C12.1517 22.0196 12.2692 21.7652 12.2692 21.5V11.5ZM17.8462 10.5C17.5503 10.5 17.2666 10.6054 17.0575 10.7929C16.8483 10.9804 16.7308 11.2348 16.7308 11.5V21.5C16.7308 21.7652 16.8483 22.0196 17.0575 22.2071C17.2666 22.3946 17.5503 22.5 17.8462 22.5C18.142 22.5 18.4257 22.3946 18.6349 22.2071C18.844 22.0196 18.9615 21.7652 18.9615 21.5V11.5C18.9615 11.2348 18.844 10.9804 18.6349 10.7929C18.4257 10.6054 18.142 10.5 17.8462 10.5Z" fill="#E8002A"/>
</svg>
